<svg t="1692067427923" class="icon" viewBox="0 0 1024 1024" version="1.1" xmlns="http://www.w3.org/2000/svg"
     p-id="15030" width="200" height="200">
    <path d="M0 0h1024v1024H0V0z" fill="#202425" opacity=".01" p-id="15031"></path>
    <path d="M102.4 238.933333a136.533333 136.533333 0 0 1 136.533333-136.533333h102.4a136.533333 136.533333 0 0 1 136.533334 136.533333v102.4a136.533333 136.533333 0 0 1-136.533334 136.533334H238.933333a136.533333 136.533333 0 0 1-136.533333-136.533334V238.933333z m0 443.733334a136.533333 136.533333 0 0 1 136.533333-136.533334h102.4a136.533333 136.533333 0 0 1 136.533334 136.533334v102.4a136.533333 136.533333 0 0 1-136.533334 136.533333H238.933333a136.533333 136.533333 0 0 1-136.533333-136.533333v-102.4z m580.266667-136.533334a136.533333 136.533333 0 0 0-136.533334 136.533334v102.4a136.533333 136.533333 0 0 0 136.533334 136.533333h102.4a136.533333 136.533333 0 0 0 136.533333-136.533333v-102.4a136.533333 136.533333 0 0 0-136.533333-136.533334h-102.4z"
          fill="#FF7744" p-id="15032"></path>
    <path d="M546.133333 238.933333a136.533333 136.533333 0 0 1 136.533334-136.533333h102.4a136.533333 136.533333 0 0 1 136.533333 136.533333v102.4a136.533333 136.533333 0 0 1-136.533333 136.533334h-102.4a136.533333 136.533333 0 0 1-136.533334-136.533334V238.933333z"
          fill="#FFAA44" p-id="15033"></path>
</svg>