<svg t="1692065269159" class="icon" viewBox="0 0 1024 1024" version="1.1" xmlns="http://www.w3.org/2000/svg"
     p-id="43671" width="200" height="200">
    <path d="M765.0816 942.2848h-0.1024c-186.368-0.6656-469.6576-1.28-490.1376-0.1536-1.024 0.1024-2.0992 0.1536-3.1232 0.1536-66.048 0-119.7568-53.7088-119.7568-119.7568v-243.712c-30.5664-2.4576-56.4224-20.992-68.608-49.7152-13.056-30.8224-6.7072-64.9728 16.5376-89.0368l332.1344-343.3984c22.1696-22.9376 51.968-35.584 83.8656-35.6864 31.8976 0.0512 61.7472 12.3904 84.0704 35.1744l336.5888 343.552c23.5008 24.0128 30.0544 58.1632 17.0496 89.1392-12.1344 28.8256-38.0928 47.5136-68.7104 49.9712v243.712c-0.0512 66.048-53.76 119.7568-119.808 119.7568z m-488.704-0.3072l-1.3312 0.1536c0.6144-0.0512 1.0752-0.1536 1.3312-0.1536z m239.9232-819.5072h-0.2048a55.3472 55.3472 0 0 0-39.8848 16.9984L144.0768 482.816c-8.5504 8.8576-5.7344 18.5344-4.1472 22.3232 1.5872 3.7888 6.656 12.544 18.944 12.544h23.8592c16.9472 0 30.72 13.7728 30.72 30.72v274.1248c0 32.1536 26.1632 58.3168 58.3168 58.3168v0.0512c30.2592-1.1264 195.9936-1.1776 493.4144-0.0512 32.1024-0.0512 58.2656-26.1632 58.2656-58.3168v-274.1248c0-16.9472 13.7728-30.72 30.72-30.72h23.8592c12.3392 0 17.3568-8.8064 18.944-12.5952 1.5872-3.7888 4.352-13.568-4.2496-22.3744l-336.5888-343.552c-10.5984-10.752-24.7296-16.6912-39.8336-16.6912z"
          fill="#00A0E9" p-id="43672"></path>
    <path d="M627.2512 816.2304c-16.9472 0-30.72-13.7728-30.72-30.72v-192.8704c0-11.7248-9.5232-21.2992-21.2992-21.2992h-113.664c-11.7248 0-21.2992 9.5232-21.2992 21.2992v192.1024c0 16.9472-13.7728 30.72-30.72 30.72s-30.72-13.7728-30.72-30.72v-192.1024c0-45.6192 37.12-82.7392 82.7392-82.7392h113.664c45.6192 0 82.7392 37.12 82.7392 82.7392v192.8704c0 16.9984-13.7728 30.72-30.72 30.72z"
          fill="#F39800" p-id="43673"></path>
</svg>