<svg t="1692067900424" class="icon" viewBox="0 0 1024 1024" version="1.1" xmlns="http://www.w3.org/2000/svg"
     p-id="33675" width="200" height="200">
    <path d="M512.003 1024c-23.399141 0-46.798283-1.599941-69.997432-4.799824-32.298815-4.699828-58.997835-27.79898-68.197498-58.897839-23.599134-75.697223-103.096217-121.595539-180.993359-104.39617-30.898866 7.299732-64.097648-4.199846-84.096915-29.398921-29.098932-37.198635-52.798063-77.997138-70.59741-121.495542-12.199552-30.298888-5.599795-64.997615 16.599391-88.59675 26.199039-28.298962 40.698507-65.497597 40.598511-104.39617 0-38.998569-14.499468-76.097208-40.8985-104.596162-21.999193-23.399141-28.498954-58.097868-16.499394-88.196764 17.899343-43.698397 41.69847-84.4969 70.59741-121.495543 20.099263-25.399068 53.298045-36.898646 84.596896-29.598914 37.498624 8.399692 76.897179 2.399912 110.495946-17.099372 33.79876-19.499285 58.697846-50.598144 70.297421-87.796779 9.099666-30.698874 35.798687-53.69803 67.797512-58.397857 46.798283-6.499762 93.896555-6.399765 140.394849 0 32.298815 4.799824 58.897839 27.79898 68.197498 58.797842 11.399582 36.79865 36.398665 67.997505 70.197424 87.396794 33.698764 19.499285 72.997322 25.599061 110.895932 16.999376 30.898866-7.199736 64.097648 4.299842 84.096914 29.398921 29.098932 37.198635 52.798063 77.997138 70.59741 121.495543 12.199552 30.298888 5.699791 64.997615-16.499395 88.596749-53.898023 58.497854-53.898023 150.394482 0.199993 209.092329 21.999193 23.399141 28.498954 58.097868 16.399398 88.096768-17.899343 43.698397-41.598474 84.4969-70.497413 121.495542-20.199259 25.399068-53.398041 36.898646-84.696893 29.498918-37.398628-8.499688-76.897179-2.399912-110.395949 17.099372h-0.099997c-33.698764 19.399288-58.697846 50.598144-70.197424 87.796779-9.099666 30.598877-35.69869 53.598034-67.59752 58.397857-23.69913 3.399875-47.198268 4.999817-70.697406 4.999817z m-286.289496-243.091081c96.996441 0 186.793147 63.097685 216.492057 158.594181 1.499945 4.89982 5.299806 8.299695 9.899637 8.899674 39.698543 5.499798 80.297054 5.499798 120.295586 0 4.199846-0.599978 8.099703-3.999853 9.399655-8.399692 16.999376-54.797989 53.498037-100.496313 102.796229-128.895271 49.198195-28.498954 106.896078-37.298632 162.294045-24.899087 4.89982 1.199956 9.699644-0.499982 12.599538-4.199845 24.699094-31.598841 45.098345-66.697553 60.397784-104.096181 1.699938-4.199846 0.699974-9.199662-2.499908-12.599538-79.297091-86.096841-79.297091-220.49191-0.199993-306.388759 3.499872-3.699864 4.399839-8.699681 2.699901-13.099519-15.199442-37.198635-35.598694-72.297347-60.497781-104.096181-2.699901-3.399875-7.499725-5.099813-11.999559-3.999853-55.697956 12.499541-113.39584 3.699864-162.594035-24.79909-49.398188-28.398958-85.896848-73.997285-102.796228-128.495286-1.399949-4.89982-5.299806-8.199699-9.899637-8.899673-39.698543-5.499798-80.297054-5.499798-120.295586 0-4.299842 0.599978-8.199699 3.999853-9.499652 8.399691-16.999376 54.797989-53.498037 100.496313-102.896225 128.895271-49.098199 28.398958-106.696085 37.298632-162.194049 24.799091-4.89982-1.199956-9.699644 0.499982-12.499541 4.199845-24.79909 31.598841-45.198342 66.697553-60.497781 104.096181-1.699938 4.09985-0.699974 9.199662 2.499909 12.599538 38.898573 41.998459 60.197791 96.396463 60.097795 153.294376 0.099996 56.797916-21.199222 111.19592-59.797806 153.094383-3.399875 3.699864-4.399839 8.699681-2.599905 12.999523 15.199442 37.198635 35.598694 72.297347 60.49778 104.096181 2.699901 3.399875 7.599721 5.099813 12.099556 3.999853 16.099409-3.299879 32.498808-5.099813 48.698214-5.099813z m476.782507 61.097758h0.199992-0.199992z"
          fill="#27D0D8" p-id="33676"></path>
    <path d="M512.003 714.411359c-111.595906 0-202.392574-90.796669-202.392574-202.392575 0-111.595906 90.796669-202.392574 202.392574-202.392574 111.595906 0 202.392574 90.796669 202.392574 202.392574 0 111.595906-90.796669 202.392574-202.392574 202.392575z m0-333.387769c-72.197351 0-130.995194 58.797843-130.995194 130.995194s58.797843 130.995194 130.995194 130.995194 130.995194-58.797843 130.995194-130.995194-58.797843-130.995194-130.995194-130.995194z"
          fill="#27D0D8" p-id="33677"></path>
</svg>