<svg t="1691982972307" class="icon" viewBox="0 0 1024 1024" version="1.1" xmlns="http://www.w3.org/2000/svg" p-id="2105"
     width="200" height="200">
    <path d="M921.81 520.24c0.05 108.39-42.98 212.38-119.63 289.08-159.61 159.61-418.39 159.66-578 0.05-159.66-159.56-159.71-418.34-0.1-578 159.56-159.61 418.34-159.66 578-0.1l0.1-0.1c76.75 76.59 119.83 180.63 119.63 289.07z"
          fill="#80D8FF" p-id="2106"></path>
    <path d="M848.99 520.24c0.05 89.13-35.37 174.63-98.4 237.65-131.23 131.23-343.97 131.23-475.2 0-131.18-131.23-131.18-343.97 0.05-475.2 131.23-131.18 343.97-131.18 475.2 0.05 63.09 62.93 98.51 148.38 98.35 237.5z"
          fill="#FD5E7A" p-id="2107"></path>
    <path d="M515.38 256.22c-8.31-1.36-16.15 4.27-17.51 12.58v247.23l-61.99 104.51c-0.31 0.45-0.59 0.93-0.84 1.42-3.9 7.46-1.02 16.68 6.45 20.57 7.46 3.91 16.67 1.02 20.57-6.44l63.29-107.22c1.73-2.55 2.63-5.56 2.61-8.63V268.8a15.236 15.236 0 0 0-12.58-12.58z m0 0"
          p-id="2108"></path>
    <path d="M513.1 80.93c-116.57-0.31-228.49 45.88-310.88 128.38-82.45 82.29-128.85 193.89-129 310.36-0.32 242.63 196.11 439.58 438.74 439.89 242.63 0.31 439.57-196.12 439.88-438.74 0.31-242.63-196.12-439.58-438.74-439.89z m289.08 728.39c-159.61 159.61-418.39 159.66-578 0.05-159.66-159.56-159.71-418.34-0.1-578 159.56-159.61 418.34-159.66 578-0.1l0.1-0.1c76.75 76.59 119.84 180.63 119.63 289.08 0.05 108.39-42.99 212.37-119.63 289.07z"
          p-id="2109"></path>
    <path d="M513.1 153.74c-97.21-0.1-190.47 38.48-259.14 107.36-68.73 68.72-107.36 161.89-107.36 259.09-0.05 202.44 164.01 366.5 366.4 366.55 202.44 0.05 366.55-164.06 366.55-366.45 0.05-202.38-164.01-366.49-366.45-366.55zM750.6 757.9c-131.23 131.23-343.97 131.23-475.2 0-131.18-131.23-131.18-343.97 0.05-475.2 131.23-131.18 343.97-131.18 475.2 0.05 63.08 62.92 98.5 148.37 98.34 237.5 0.05 89.12-35.37 174.62-98.39 237.65z"
          p-id="2110"></path>
</svg>